<svg width="358" height="463" viewBox="0 0 358 463" fill="none" xmlns="http://www.w3.org/2000/svg">
<path d="M5.038 12.754V28H1.43V12.754H5.038ZM13.794 12.754L8.932 19.596L14.19 28H10.01L5.148 19.86L9.988 12.754H13.794ZM23.3819 28L22.5899 24.722H18.1459L17.3759 28H13.6359L18.2339 12.754H22.6119L27.2099 28H23.3819ZM18.7619 22.104H21.9739L20.3679 15.372L18.7619 22.104ZM33.3444 22.17H31.9364V28H28.3284V12.754H33.3224C35.4051 12.754 36.9671 13.1353 38.0084 13.898C39.0644 14.6607 39.5924 15.8267 39.5924 17.396C39.5924 18.3787 39.3578 19.2 38.8884 19.86C38.4191 20.5053 37.6784 21.0553 36.6664 21.51L40.5384 28H36.4684L33.3444 22.17ZM31.9364 19.684H33.4544C34.2611 19.684 34.8624 19.5007 35.2584 19.134C35.6691 18.7673 35.8744 18.188 35.8744 17.396C35.8744 16.6627 35.6544 16.1273 35.2144 15.79C34.7891 15.4527 34.1291 15.284 33.2344 15.284H31.9364V19.684ZM45.5146 12.754V25.14H51.4546L51.0806 28H41.9066V12.754H45.5146ZM57.834 12.38C58.978 12.38 59.968 12.5413 60.804 12.864C61.6547 13.1867 62.4247 13.678 63.114 14.338L61.442 16.296C60.4007 15.4453 59.286 15.02 58.098 15.02C57.4674 15.02 56.9687 15.152 56.602 15.416C56.2354 15.6653 56.052 16.032 56.052 16.516C56.052 16.8533 56.1327 17.132 56.294 17.352C56.4554 17.5573 56.7414 17.7553 57.152 17.946C57.5627 18.1367 58.1787 18.364 59 18.628C60.5547 19.1267 61.6987 19.7427 62.432 20.476C63.1654 21.1947 63.532 22.2213 63.532 23.556C63.532 24.5093 63.29 25.3527 62.806 26.086C62.322 26.8047 61.6254 27.3693 60.716 27.78C59.8067 28.176 58.7287 28.374 57.482 28.374C56.2354 28.374 55.128 28.176 54.16 27.78C53.2067 27.384 52.3854 26.856 51.696 26.196L53.522 24.194C54.1087 24.6927 54.71 25.0667 55.326 25.316C55.9567 25.5653 56.6387 25.69 57.372 25.69C58.12 25.69 58.7067 25.5287 59.132 25.206C59.572 24.8687 59.792 24.4067 59.792 23.82C59.792 23.4387 59.7114 23.1233 59.55 22.874C59.3887 22.61 59.11 22.3753 58.714 22.17C58.318 21.9647 57.746 21.7447 56.998 21.51C55.3114 20.9967 54.1087 20.366 53.39 19.618C52.686 18.87 52.334 17.924 52.334 16.78C52.334 15.9 52.5687 15.13 53.038 14.47C53.5074 13.7953 54.16 13.282 54.996 12.93C55.832 12.5633 56.778 12.38 57.834 12.38ZM75.4732 12.754L75.1212 15.526H71.3592V28H67.7512V15.526H63.8132V12.754H75.4732ZM83.8604 28L83.0684 24.722H78.6244L77.8544 28H74.1144L78.7124 12.754H83.0904L87.6884 28H83.8604ZM79.2404 22.104H82.4524L80.8464 15.372L79.2404 22.104ZM93.053 12.754C95.4436 12.754 97.3576 13.2967 98.795 14.382C100.247 15.4527 100.973 17.4253 100.973 20.3C100.973 23.1307 100.269 25.1253 98.861 26.284C97.453 27.428 95.627 28 93.383 28H88.807V12.754H93.053ZM92.415 15.372V25.382H93.603C94.791 25.382 95.693 25.0153 96.309 24.282C96.925 23.534 97.233 22.2067 97.233 20.3C97.233 18.9947 97.079 17.9827 96.771 17.264C96.463 16.5453 96.045 16.054 95.517 15.79C94.989 15.5113 94.3363 15.372 93.559 15.372H92.415Z" fill="#353131"/>
<line x1="113" y1="30.5" x2="268" y2="30.5" stroke="#353131" stroke-dasharray="2 2"/>
<path d="M281.236 12.82C282.307 12.82 283.223 13.0107 283.986 13.392C284.763 13.7733 285.35 14.2867 285.746 14.932C286.157 15.5773 286.362 16.2887 286.362 17.066C286.362 17.858 286.201 18.6133 285.878 19.332C285.555 20.0507 284.983 20.8793 284.162 21.818C283.341 22.742 282.145 23.9153 280.576 25.338H286.67L286.318 28H276.638V25.536C278.442 23.7613 279.755 22.4267 280.576 21.532C281.397 20.6227 281.969 19.8673 282.292 19.266C282.629 18.6647 282.798 18.0487 282.798 17.418C282.798 16.8167 282.622 16.3473 282.27 16.01C281.933 15.658 281.471 15.482 280.884 15.482C280.356 15.482 279.887 15.6067 279.476 15.856C279.065 16.0907 278.633 16.4793 278.178 17.022L276.132 15.394C276.748 14.5873 277.481 13.9567 278.332 13.502C279.197 13.0473 280.165 12.82 281.236 12.82ZM297.05 13.128V15.482L291.594 28.352L288.448 27.296L293.442 15.746H287.436V13.128H297.05ZM308.998 12.38C310.142 12.38 311.132 12.5413 311.968 12.864C312.819 13.1867 313.589 13.678 314.278 14.338L312.606 16.296C311.565 15.4453 310.45 15.02 309.262 15.02C308.631 15.02 308.133 15.152 307.766 15.416C307.399 15.6653 307.216 16.032 307.216 16.516C307.216 16.8533 307.297 17.132 307.458 17.352C307.619 17.5573 307.905 17.7553 308.316 17.946C308.727 18.1367 309.343 18.364 310.164 18.628C311.719 19.1267 312.863 19.7427 313.596 20.476C314.329 21.1947 314.696 22.2213 314.696 23.556C314.696 24.5093 314.454 25.3527 313.97 26.086C313.486 26.8047 312.789 27.3693 311.88 27.78C310.971 28.176 309.893 28.374 308.646 28.374C307.399 28.374 306.292 28.176 305.324 27.78C304.371 27.384 303.549 26.856 302.86 26.196L304.686 24.194C305.273 24.6927 305.874 25.0667 306.49 25.316C307.121 25.5653 307.803 25.69 308.536 25.69C309.284 25.69 309.871 25.5287 310.296 25.206C310.736 24.8687 310.956 24.4067 310.956 23.82C310.956 23.4387 310.875 23.1233 310.714 22.874C310.553 22.61 310.274 22.3753 309.878 22.17C309.482 21.9647 308.91 21.7447 308.162 21.51C306.475 20.9967 305.273 20.366 304.554 19.618C303.85 18.87 303.498 17.924 303.498 16.78C303.498 15.9 303.733 15.13 304.202 14.47C304.671 13.7953 305.324 13.282 306.16 12.93C306.996 12.5633 307.942 12.38 308.998 12.38ZM326.032 12.754L325.658 15.328H320.29V18.98H324.976V21.51H320.29V25.404H326.032V28H316.682V12.754H326.032ZM331.87 12.754V28H328.262V12.754H331.87ZM340.626 12.754L335.764 19.596L341.022 28H336.842L331.98 19.86L336.82 12.754H340.626Z" fill="#353131"/>
<rect y="39" width="24" height="24" rx="12" fill="#353131" fill-opacity="0.24"/>
<path fill-rule="evenodd" clip-rule="evenodd" d="M12 45C11.7239 45 11.5 45.2239 11.5 45.5V50.5H6.5C6.22386 50.5 6 50.7239 6 51C6 51.2762 6.22386 51.5 6.5 51.5H11.5V56.5C11.5 56.7761 11.7239 57 12 57C12.2762 57 12.5 56.7761 12.5 56.5V51.5H17.5C17.7761 51.5 18 51.2762 18 51C18 50.7239 17.7761 50.5 17.5 50.5H12.5V45.5C12.5 45.2239 12.2762 45 12 45Z" fill="#353131"/>
<path d="M37.248 45.91C37.8733 45.91 38.41 46.0173 38.858 46.232C39.3153 46.4467 39.656 46.736 39.88 47.1C40.1133 47.464 40.23 47.8653 40.23 48.304C40.23 48.8733 40.0667 49.3493 39.74 49.732C39.4133 50.1053 38.9653 50.3667 38.396 50.516C39.0213 50.572 39.5347 50.796 39.936 51.188C40.3373 51.58 40.538 52.1213 40.538 52.812C40.538 53.3533 40.398 53.8433 40.118 54.282C39.8473 54.7207 39.4553 55.0707 38.942 55.332C38.4287 55.584 37.822 55.71 37.122 55.71C35.834 55.71 34.8167 55.2573 34.07 54.352L35.064 53.4C35.3813 53.7173 35.694 53.9507 36.002 54.1C36.31 54.24 36.6507 54.31 37.024 54.31C37.528 54.31 37.9293 54.17 38.228 53.89C38.536 53.6007 38.69 53.2133 38.69 52.728C38.69 52.1867 38.5453 51.7993 38.256 51.566C37.976 51.3327 37.556 51.216 36.996 51.216H36.254L36.464 49.942H36.968C37.4253 49.942 37.7893 49.816 38.06 49.564C38.34 49.312 38.48 48.962 38.48 48.514C38.48 48.1313 38.354 47.8327 38.102 47.618C37.85 47.394 37.514 47.282 37.094 47.282C36.73 47.282 36.3987 47.352 36.1 47.492C35.8013 47.6227 35.5027 47.828 35.204 48.108L34.294 47.114C35.1433 46.3113 36.128 45.91 37.248 45.91ZM48.0527 47.884C49.0514 47.884 49.9287 48.178 50.6847 48.766L49.9847 49.816C49.3501 49.4147 48.7294 49.214 48.1227 49.214C47.7681 49.214 47.4927 49.284 47.2967 49.424C47.1007 49.5547 47.0027 49.732 47.0027 49.956C47.0027 50.124 47.0447 50.264 47.1287 50.376C47.2127 50.488 47.3621 50.5953 47.5767 50.698C47.8007 50.7913 48.1274 50.8987 48.5567 51.02C49.3594 51.2347 49.9521 51.5193 50.3347 51.874C50.7267 52.2287 50.9227 52.7233 50.9227 53.358C50.9227 54.0953 50.6241 54.674 50.0267 55.094C49.4294 55.5047 48.6874 55.71 47.8007 55.71C47.1941 55.71 46.6387 55.6167 46.1347 55.43C45.6401 55.2433 45.2107 54.9867 44.8467 54.66L45.7427 53.652C46.3867 54.1373 47.0587 54.38 47.7587 54.38C48.1601 54.38 48.4774 54.3007 48.7107 54.142C48.9534 53.9833 49.0747 53.764 49.0747 53.484C49.0747 53.2693 49.0281 53.1013 48.9347 52.98C48.8507 52.8493 48.6921 52.7373 48.4587 52.644C48.2347 52.5413 47.8801 52.42 47.3947 52.28C46.6387 52.0747 46.0834 51.79 45.7287 51.426C45.3741 51.0527 45.1967 50.5907 45.1967 50.04C45.1967 49.6293 45.3134 49.2607 45.5467 48.934C45.7894 48.6073 46.1254 48.3507 46.5547 48.164C46.9934 47.9773 47.4927 47.884 48.0527 47.884ZM56.6149 55.15C56.3536 55.3367 56.0596 55.4767 55.7329 55.57C55.4156 55.6633 55.0889 55.71 54.7529 55.71C54.0249 55.7007 53.4696 55.4953 53.0869 55.094C52.7136 54.6833 52.5269 54.0813 52.5269 53.288V49.382H51.3649V48.094H52.5269V46.456L54.3189 46.246V48.094H56.0409L55.8589 49.382H54.3189V53.246C54.3189 53.61 54.3796 53.8713 54.5009 54.03C54.6316 54.1887 54.8323 54.268 55.1029 54.268C55.3736 54.268 55.6676 54.1793 55.9849 54.002L56.6149 55.15ZM61.1386 55.528C60.8399 56.4427 60.3872 57.152 59.7806 57.656C59.1739 58.1693 58.3432 58.468 57.2886 58.552L57.1066 57.25C57.5919 57.1753 57.9792 57.068 58.2686 56.928C58.5672 56.7973 58.8052 56.62 58.9826 56.396C59.1599 56.172 59.3232 55.8733 59.4726 55.5H58.8566L56.5046 48.094H58.4086L60.0186 54.31L61.6986 48.094H63.5466L61.1386 55.528ZM67.5366 47.884C68.0219 47.884 68.4559 47.954 68.8386 48.094C69.2306 48.234 69.5992 48.4533 69.9446 48.752L69.1466 49.83C68.8946 49.6433 68.6519 49.508 68.4186 49.424C68.1852 49.34 67.9286 49.298 67.6486 49.298C66.5379 49.298 65.9826 50.1427 65.9826 51.832C65.9826 52.6907 66.1272 53.3113 66.4166 53.694C66.7059 54.0673 67.1166 54.254 67.6486 54.254C67.9099 54.254 68.1479 54.212 68.3626 54.128C68.5866 54.044 68.8479 53.9087 69.1466 53.722L69.9446 54.856C69.2446 55.4253 68.4466 55.71 67.5506 55.71C66.8412 55.71 66.2252 55.556 65.7026 55.248C65.1799 54.9307 64.7786 54.4827 64.4986 53.904C64.2186 53.3253 64.0786 52.644 64.0786 51.86C64.0786 51.076 64.2186 50.3853 64.4986 49.788C64.7786 49.1813 65.1799 48.7147 65.7026 48.388C66.2252 48.052 66.8366 47.884 67.5366 47.884ZM73.0321 44.93V55.5H71.2401V45.126L73.0321 44.93ZM77.4701 48.094L75.0061 51.356L77.7081 55.5H75.6501L73.1021 51.454L75.5801 48.094H77.4701ZM84.6442 51.622C84.6442 51.7153 84.6302 51.958 84.6022 52.35H79.9542C80.0102 53.0687 80.1969 53.582 80.5142 53.89C80.8316 54.198 81.2516 54.352 81.7742 54.352C82.1009 54.352 82.4089 54.3007 82.6982 54.198C82.9876 54.086 83.2956 53.918 83.6222 53.694L84.3642 54.716C83.5429 55.3787 82.6282 55.71 81.6202 55.71C80.4909 55.71 79.6182 55.3647 79.0022 54.674C78.3956 53.9833 78.0922 53.0407 78.0922 51.846C78.0922 51.09 78.2229 50.4133 78.4842 49.816C78.7456 49.2093 79.1236 48.738 79.6182 48.402C80.1129 48.0567 80.7009 47.884 81.3822 47.884C82.4182 47.884 83.2209 48.2153 83.7902 48.878C84.3596 49.5313 84.6442 50.446 84.6442 51.622ZM82.8662 51.104C82.8662 49.8067 82.3856 49.158 81.4242 49.158C80.9856 49.158 80.6402 49.3213 80.3882 49.648C80.1456 49.9653 80.0009 50.4787 79.9542 51.188H82.8662V51.104ZM90.1998 47.884C90.8625 47.884 91.3758 48.0847 91.7398 48.486C92.1132 48.878 92.2998 49.4287 92.2998 50.138V55.5H90.5078V50.418C90.5078 49.9793 90.4285 49.6713 90.2698 49.494C90.1205 49.3167 89.8965 49.228 89.5978 49.228C89.2898 49.228 89.0098 49.326 88.7578 49.522C88.5152 49.7087 88.2772 49.984 88.0438 50.348V55.5H86.2518V48.094H87.8058L87.9458 49.06C88.5525 48.276 89.3038 47.884 90.1998 47.884Z" fill="#353131"/>
<rect x="104" y="39" width="24" height="24" rx="12" fill="#353131" fill-opacity="0.24"/>
<rect x="122" y="50.5" width="1" height="12" rx="0.5" transform="rotate(90 122 50.5)" fill="#353131"/>
<line x1="-0.000516533" y1="76.0498" x2="357.996" y2="74.5" stroke="#353131" stroke-opacity="0.24" stroke-dasharray="1 1"/>
<path d="M9.614 104.55V98.0158H5.038V104.55H1.43V89.3038H5.038V95.1998H9.614V89.3038H13.222V104.55H9.614ZM22.2423 88.9298C24.413 88.9298 26.0997 89.6264 27.3023 91.0198C28.5197 92.4131 29.1283 94.3784 29.1283 96.9158C29.1283 98.5731 28.8497 100.003 28.2923 101.206C27.7497 102.408 26.9577 103.332 25.9163 103.978C24.8897 104.608 23.665 104.924 22.2423 104.924C20.8197 104.924 19.595 104.608 18.5683 103.978C17.5417 103.347 16.7497 102.438 16.1923 101.25C15.6497 100.047 15.3783 98.6024 15.3783 96.9158C15.3783 95.2731 15.6497 93.8504 16.1923 92.6478C16.7497 91.4451 17.5417 90.5284 18.5683 89.8978C19.595 89.2524 20.8197 88.9298 22.2423 88.9298ZM22.2423 91.5698C21.201 91.5698 20.4237 91.9951 19.9103 92.8458C19.4117 93.6818 19.1623 95.0384 19.1623 96.9158C19.1623 98.7931 19.419 100.157 19.9323 101.008C20.4457 101.858 21.2157 102.284 22.2423 102.284C23.2983 102.284 24.0757 101.866 24.5743 101.03C25.0877 100.179 25.3443 98.8078 25.3443 96.9158C25.3443 95.0238 25.0877 93.6598 24.5743 92.8238C24.061 91.9878 23.2837 91.5698 22.2423 91.5698ZM42.74 88.9298C43.6933 88.9298 44.5367 89.0691 45.27 89.3478C46.018 89.6264 46.722 90.0444 47.382 90.6018L45.666 92.6478C45.2113 92.2958 44.764 92.0318 44.324 91.8558C43.884 91.6798 43.4147 91.5918 42.916 91.5918C41.8893 91.5918 41.0753 92.0244 40.474 92.8898C39.8873 93.7551 39.594 95.0898 39.594 96.8938C39.594 98.6684 39.8873 99.9884 40.474 100.854C41.0753 101.704 41.904 102.13 42.96 102.13C43.5173 102.13 44.0233 102.027 44.478 101.822C44.9327 101.602 45.424 101.294 45.952 100.898L47.558 102.966C46.986 103.538 46.2893 104.007 45.468 104.374C44.6613 104.74 43.7667 104.924 42.784 104.924C41.376 104.924 40.1513 104.616 39.11 104C38.0687 103.384 37.2547 102.474 36.668 101.272C36.096 100.054 35.81 98.5951 35.81 96.8938C35.81 95.2364 36.1033 93.8064 36.69 92.6038C37.2913 91.4011 38.1127 90.4918 39.154 89.8758C40.21 89.2451 41.4053 88.9298 42.74 88.9298ZM57.3523 104.55V98.0158H52.7763V104.55H49.1683V89.3038H52.7763V95.1998H57.3523V89.3038H60.9603V104.55H57.3523ZM67.4286 89.3038V104.55H63.8206V89.3038H67.4286ZM90.6226 104.55H87.0806L86.8166 98.5878C86.7433 97.1651 86.7066 95.8964 86.7066 94.7818C86.7066 93.9311 86.7286 93.1244 86.7726 92.3618L84.4186 102.944H81.0086L78.5006 92.3618C78.5886 93.6378 78.6326 94.8404 78.6326 95.9698C78.6326 96.8204 78.6106 97.7078 78.5666 98.6318L78.3026 104.55H74.7826L75.9266 89.3038H80.4806L82.7686 99.6438L84.9026 89.3038H89.4786L90.6226 104.55ZM96.3896 89.3038V104.55H92.7816V89.3038H96.3896ZM110.975 104.55H106.377L101.977 92.7358C102.124 93.8944 102.234 94.9211 102.307 95.8158C102.395 96.6958 102.439 97.7444 102.439 98.9618V104.55H99.2269V89.3038H103.715L108.225 101.14C107.902 99.1304 107.741 97.2384 107.741 95.4638V89.3038H110.975V104.55ZM121.999 104.55V98.0158H117.423V104.55H113.815V89.3038H117.423V95.1998H121.999V89.3038H125.607V104.55H121.999Z" fill="#353131"/>
<line x1="136" y1="110.05" x2="269" y2="110.05" stroke="#353131" stroke-dasharray="2 2"/>
<path d="M285.404 92.6778V107.55H281.994V96.0658L278.804 98.0238L277.286 95.7138L282.302 92.6778H285.404ZM296.379 99.5638C297.376 100.048 298.117 100.62 298.601 101.28C299.085 101.925 299.327 102.673 299.327 103.524C299.327 104.33 299.092 105.071 298.623 105.746C298.168 106.406 297.501 106.934 296.621 107.33C295.741 107.726 294.707 107.924 293.519 107.924C292.36 107.924 291.348 107.733 290.483 107.352C289.632 106.956 288.98 106.435 288.525 105.79C288.07 105.13 287.843 104.396 287.843 103.59C287.843 101.932 288.767 100.7 290.615 99.8938C289.163 99.0431 288.437 97.8698 288.437 96.3738C288.437 95.5818 288.657 94.8851 289.097 94.2838C289.537 93.6824 290.146 93.2131 290.923 92.8758C291.715 92.5384 292.61 92.3698 293.607 92.3698C295.118 92.3698 296.35 92.7144 297.303 93.4038C298.271 94.0784 298.755 95.0098 298.755 96.1978C298.755 96.8578 298.557 97.4811 298.161 98.0678C297.78 98.6398 297.186 99.1384 296.379 99.5638ZM293.629 94.7238C293.072 94.7238 292.624 94.8704 292.287 95.1638C291.964 95.4571 291.803 95.8751 291.803 96.4178C291.803 96.9164 291.942 97.3271 292.221 97.6498C292.514 97.9578 292.976 98.2438 293.607 98.5078L294.069 98.6838C294.568 98.3611 294.912 98.0238 295.103 97.6718C295.294 97.3051 295.389 96.8724 295.389 96.3738C295.389 95.8751 295.235 95.4791 294.927 95.1858C294.634 94.8778 294.201 94.7238 293.629 94.7238ZM293.629 105.438C294.333 105.438 294.876 105.262 295.257 104.91C295.653 104.543 295.851 104.074 295.851 103.502C295.851 102.9 295.682 102.431 295.345 102.094C295.008 101.742 294.414 101.412 293.563 101.104L292.837 100.84C291.84 101.397 291.341 102.255 291.341 103.414C291.341 104.03 291.546 104.521 291.957 104.888C292.368 105.254 292.925 105.438 293.629 105.438ZM311.545 91.9298C312.689 91.9298 313.679 92.0911 314.515 92.4138C315.366 92.7364 316.136 93.2278 316.825 93.8878L315.153 95.8458C314.112 94.9951 312.997 94.5698 311.809 94.5698C311.178 94.5698 310.68 94.7018 310.313 94.9658C309.946 95.2151 309.763 95.5818 309.763 96.0658C309.763 96.4031 309.844 96.6818 310.005 96.9018C310.166 97.1071 310.452 97.3051 310.863 97.4958C311.274 97.6864 311.89 97.9138 312.711 98.1778C314.266 98.6764 315.41 99.2924 316.143 100.026C316.876 100.744 317.243 101.771 317.243 103.106C317.243 104.059 317.001 104.902 316.517 105.636C316.033 106.354 315.336 106.919 314.427 107.33C313.518 107.726 312.44 107.924 311.193 107.924C309.946 107.924 308.839 107.726 307.871 107.33C306.918 106.934 306.096 106.406 305.407 105.746L307.233 103.744C307.82 104.242 308.421 104.616 309.037 104.866C309.668 105.115 310.35 105.24 311.083 105.24C311.831 105.24 312.418 105.078 312.843 104.756C313.283 104.418 313.503 103.956 313.503 103.37C313.503 102.988 313.422 102.673 313.261 102.424C313.1 102.16 312.821 101.925 312.425 101.72C312.029 101.514 311.457 101.294 310.709 101.06C309.022 100.546 307.82 99.9158 307.101 99.1678C306.397 98.4198 306.045 97.4738 306.045 96.3298C306.045 95.4498 306.28 94.6798 306.749 94.0198C307.218 93.3451 307.871 92.8318 308.707 92.4798C309.543 92.1131 310.489 91.9298 311.545 91.9298ZM328.579 92.3038L328.205 94.8778H322.837V98.5298H327.523V101.06H322.837V104.954H328.579V107.55H319.229V92.3038H328.579ZM334.417 92.3038V107.55H330.809V92.3038H334.417ZM343.173 92.3038L338.311 99.1458L343.569 107.55H339.389L334.527 99.4098L339.367 92.3038H343.173Z" fill="#353131"/>
<rect y="118.55" width="24" height="24" rx="12" fill="#353131" fill-opacity="0.24"/>
<path fill-rule="evenodd" clip-rule="evenodd" d="M12 124.55C11.7239 124.55 11.5 124.774 11.5 125.05V130.05H6.5C6.22386 130.05 6 130.274 6 130.55C6 130.826 6.22386 131.05 6.5 131.05H11.5V136.05C11.5 136.326 11.7239 136.55 12 136.55C12.2762 136.55 12.5 136.326 12.5 136.05V131.05H17.5C17.7761 131.05 18 130.826 18 130.55C18 130.274 17.7761 130.05 17.5 130.05H12.5V125.05C12.5 124.774 12.2762 124.55 12 124.55Z" fill="#353131"/>
<path d="M37.262 125.46C37.8967 125.46 38.4427 125.576 38.9 125.81C39.3667 126.043 39.7213 126.36 39.964 126.762C40.2067 127.163 40.328 127.611 40.328 128.106C40.328 128.638 40.2113 129.151 39.978 129.646C39.754 130.131 39.376 130.672 38.844 131.27C38.312 131.867 37.5327 132.656 36.506 133.636H40.538L40.342 135.05H34.476V133.734C35.6707 132.52 36.5247 131.624 37.038 131.046C37.5607 130.458 37.9293 129.958 38.144 129.548C38.368 129.128 38.48 128.694 38.48 128.246C38.48 127.816 38.354 127.48 38.102 127.238C37.8593 126.995 37.5327 126.874 37.122 126.874C36.758 126.874 36.436 126.953 36.156 127.112C35.8853 127.261 35.6007 127.513 35.302 127.868L34.21 127C35.0033 125.973 36.0207 125.46 37.262 125.46ZM48.0117 127.434C49.0104 127.434 49.8877 127.728 50.6437 128.316L49.9437 129.366C49.309 128.964 48.6884 128.764 48.0817 128.764C47.727 128.764 47.4517 128.834 47.2557 128.974C47.0597 129.104 46.9617 129.282 46.9617 129.506C46.9617 129.674 47.0037 129.814 47.0877 129.926C47.1717 130.038 47.321 130.145 47.5357 130.248C47.7597 130.341 48.0864 130.448 48.5157 130.57C49.3184 130.784 49.911 131.069 50.2937 131.424C50.6857 131.778 50.8817 132.273 50.8817 132.908C50.8817 133.645 50.583 134.224 49.9857 134.644C49.3884 135.054 48.6464 135.26 47.7597 135.26C47.153 135.26 46.5977 135.166 46.0937 134.98C45.599 134.793 45.1697 134.536 44.8057 134.21L45.7017 133.202C46.3457 133.687 47.0177 133.93 47.7177 133.93C48.119 133.93 48.4364 133.85 48.6697 133.692C48.9124 133.533 49.0337 133.314 49.0337 133.034C49.0337 132.819 48.987 132.651 48.8937 132.53C48.8097 132.399 48.651 132.287 48.4177 132.194C48.1937 132.091 47.839 131.97 47.3537 131.83C46.5977 131.624 46.0424 131.34 45.6877 130.976C45.333 130.602 45.1557 130.14 45.1557 129.59C45.1557 129.179 45.2724 128.81 45.5057 128.484C45.7484 128.157 46.0844 127.9 46.5137 127.714C46.9524 127.527 47.4517 127.434 48.0117 127.434ZM56.5739 134.7C56.3126 134.886 56.0186 135.026 55.6919 135.12C55.3746 135.213 55.0479 135.26 54.7119 135.26C53.9839 135.25 53.4286 135.045 53.0459 134.644C52.6726 134.233 52.4859 133.631 52.4859 132.838V128.932H51.3239V127.644H52.4859V126.006L54.2779 125.796V127.644H55.9999L55.8179 128.932H54.2779V132.796C54.2779 133.16 54.3386 133.421 54.4599 133.58C54.5906 133.738 54.7912 133.818 55.0619 133.818C55.3326 133.818 55.6266 133.729 55.9439 133.552L56.5739 134.7ZM61.0975 135.078C60.7989 135.992 60.3462 136.702 59.7395 137.206C59.1329 137.719 58.3022 138.018 57.2475 138.102L57.0655 136.8C57.5509 136.725 57.9382 136.618 58.2275 136.478C58.5262 136.347 58.7642 136.17 58.9415 135.946C59.1189 135.722 59.2822 135.423 59.4315 135.05H58.8155L56.4635 127.644H58.3675L59.9775 133.86L61.6575 127.644H63.5055L61.0975 135.078ZM67.4955 127.434C67.9809 127.434 68.4149 127.504 68.7975 127.644C69.1895 127.784 69.5582 128.003 69.9035 128.302L69.1055 129.38C68.8535 129.193 68.6109 129.058 68.3775 128.974C68.1442 128.89 67.8875 128.848 67.6075 128.848C66.4969 128.848 65.9415 129.692 65.9415 131.382C65.9415 132.24 66.0862 132.861 66.3755 133.244C66.6649 133.617 67.0755 133.804 67.6075 133.804C67.8689 133.804 68.1069 133.762 68.3215 133.678C68.5455 133.594 68.8069 133.458 69.1055 133.272L69.9035 134.406C69.2035 134.975 68.4055 135.26 67.5095 135.26C66.8002 135.26 66.1842 135.106 65.6615 134.798C65.1389 134.48 64.7375 134.032 64.4575 133.454C64.1775 132.875 64.0375 132.194 64.0375 131.41C64.0375 130.626 64.1775 129.935 64.4575 129.338C64.7375 128.731 65.1389 128.264 65.6615 127.938C66.1842 127.602 66.7955 127.434 67.4955 127.434ZM72.9911 124.48V135.05H71.1991V124.676L72.9911 124.48ZM77.4291 127.644L74.9651 130.906L77.6671 135.05H75.6091L73.0611 131.004L75.5391 127.644H77.4291ZM84.6032 131.172C84.6032 131.265 84.5892 131.508 84.5612 131.9H79.9132C79.9692 132.618 80.1559 133.132 80.4732 133.44C80.7906 133.748 81.2106 133.902 81.7332 133.902C82.0599 133.902 82.3679 133.85 82.6572 133.748C82.9466 133.636 83.2546 133.468 83.5812 133.244L84.3232 134.266C83.5019 134.928 82.5872 135.26 81.5792 135.26C80.4499 135.26 79.5772 134.914 78.9612 134.224C78.3546 133.533 78.0512 132.59 78.0512 131.396C78.0512 130.64 78.1819 129.963 78.4432 129.366C78.7046 128.759 79.0826 128.288 79.5772 127.952C80.0719 127.606 80.6599 127.434 81.3412 127.434C82.3772 127.434 83.1799 127.765 83.7492 128.428C84.3186 129.081 84.6032 129.996 84.6032 131.172ZM82.8252 130.654C82.8252 129.356 82.3446 128.708 81.3832 128.708C80.9446 128.708 80.5992 128.871 80.3472 129.198C80.1046 129.515 79.9599 130.028 79.9132 130.738H82.8252V130.654ZM90.1588 127.434C90.8215 127.434 91.3348 127.634 91.6988 128.036C92.0721 128.428 92.2588 128.978 92.2588 129.688V135.05H90.4668V129.968C90.4668 129.529 90.3875 129.221 90.2288 129.044C90.0795 128.866 89.8555 128.778 89.5568 128.778C89.2488 128.778 88.9688 128.876 88.7168 129.072C88.4741 129.258 88.2361 129.534 88.0028 129.898V135.05H86.2108V127.644H87.7648L87.9048 128.61C88.5115 127.826 89.2628 127.434 90.1588 127.434Z" fill="#353131"/>
<rect x="104" y="118.55" width="24" height="24" rx="12" fill="#353131" fill-opacity="0.24"/>
<rect x="122" y="130.05" width="1" height="12" rx="0.5" transform="rotate(90 122 130.05)" fill="#353131"/>
<line x1="-0.000516533" y1="155.6" x2="357.996" y2="154.05" stroke="#353131" stroke-opacity="0.24" stroke-dasharray="1 1"/>
<path d="M5.038 168.854V184.1H1.43V168.854H5.038ZM13.794 168.854L8.932 175.696L14.19 184.1H10.01L5.148 175.96L9.988 168.854H13.794ZM18.9599 168.854V184.1H15.3519V168.854H18.9599ZM33.5452 184.1H28.9472L24.5472 172.286C24.6939 173.444 24.8039 174.471 24.8772 175.366C24.9652 176.246 25.0092 177.294 25.0092 178.512V184.1H21.7972V168.854H26.2852L30.7952 180.69C30.4725 178.68 30.3112 176.788 30.3112 175.014V168.854H33.5452V184.1ZM42.9851 168.48C44.9504 168.48 46.6444 169.103 48.0671 170.35L46.2411 172.264C45.6984 171.853 45.1924 171.56 44.7231 171.384C44.2684 171.193 43.7404 171.098 43.1391 171.098C42.0097 171.098 41.1077 171.545 40.4331 172.44C39.7584 173.32 39.4211 174.662 39.4211 176.466C39.4211 178.416 39.6777 179.802 40.1911 180.624C40.7044 181.43 41.5037 181.834 42.5891 181.834C43.3517 181.834 44.0411 181.665 44.6571 181.328V177.874H42.6771L42.3251 175.322H48.1551V182.868C47.3631 183.381 46.4904 183.777 45.5371 184.056C44.5837 184.334 43.6304 184.474 42.6771 184.474C40.3597 184.474 38.6144 183.799 37.4411 182.45C36.2677 181.086 35.6811 179.091 35.6811 176.466C35.6811 174.794 35.9964 173.356 36.6271 172.154C37.2724 170.951 38.1451 170.042 39.2451 169.426C40.3597 168.795 41.6064 168.48 42.9851 168.48ZM55.4708 168.48C56.6148 168.48 57.6048 168.641 58.4408 168.964C59.2914 169.286 60.0614 169.778 60.7508 170.438L59.0788 172.396C58.0374 171.545 56.9228 171.12 55.7348 171.12C55.1041 171.12 54.6054 171.252 54.2388 171.516C53.8721 171.765 53.6888 172.132 53.6888 172.616C53.6888 172.953 53.7694 173.232 53.9308 173.452C54.0921 173.657 54.3781 173.855 54.7888 174.046C55.1994 174.236 55.8154 174.464 56.6368 174.728C58.1914 175.226 59.3354 175.842 60.0688 176.576C60.8021 177.294 61.1688 178.321 61.1688 179.656C61.1688 180.609 60.9268 181.452 60.4428 182.186C59.9588 182.904 59.2621 183.469 58.3528 183.88C57.4434 184.276 56.3654 184.474 55.1188 184.474C53.8721 184.474 52.7648 184.276 51.7968 183.88C50.8434 183.484 50.0221 182.956 49.3328 182.296L51.1588 180.294C51.7454 180.792 52.3468 181.166 52.9628 181.416C53.5934 181.665 54.2754 181.79 55.0088 181.79C55.7568 181.79 56.3434 181.628 56.7688 181.306C57.2088 180.968 57.4288 180.506 57.4288 179.92C57.4288 179.538 57.3481 179.223 57.1868 178.974C57.0254 178.71 56.7468 178.475 56.3508 178.27C55.9548 178.064 55.3828 177.844 54.6348 177.61C52.9481 177.096 51.7454 176.466 51.0268 175.718C50.3228 174.97 49.9708 174.024 49.9708 172.88C49.9708 172 50.2054 171.23 50.6748 170.57C51.1441 169.895 51.7968 169.382 52.6328 169.03C53.4688 168.663 54.4148 168.48 55.4708 168.48ZM73.11 168.854L72.758 171.626H68.996V184.1H65.388V171.626H61.45V168.854H73.11ZM79.9494 168.48C82.12 168.48 83.8067 169.176 85.0094 170.57C86.2267 171.963 86.8354 173.928 86.8354 176.466C86.8354 178.123 86.5567 179.553 85.9994 180.756C85.4567 181.958 84.6647 182.882 83.6234 183.528C82.5967 184.158 81.372 184.474 79.9494 184.474C78.5267 184.474 77.302 184.158 76.2754 183.528C75.2487 182.897 74.4567 181.988 73.8994 180.8C73.3567 179.597 73.0854 178.152 73.0854 176.466C73.0854 174.823 73.3567 173.4 73.8994 172.198C74.4567 170.995 75.2487 170.078 76.2754 169.448C77.302 168.802 78.5267 168.48 79.9494 168.48ZM79.9494 171.12C78.908 171.12 78.1307 171.545 77.6174 172.396C77.1187 173.232 76.8694 174.588 76.8694 176.466C76.8694 178.343 77.126 179.707 77.6394 180.558C78.1527 181.408 78.9227 181.834 79.9494 181.834C81.0054 181.834 81.7827 181.416 82.2814 180.58C82.7947 179.729 83.0514 178.358 83.0514 176.466C83.0514 174.574 82.7947 173.21 82.2814 172.374C81.768 171.538 80.9907 171.12 79.9494 171.12ZM100.748 184.1H96.1503L91.7503 172.286C91.897 173.444 92.007 174.471 92.0803 175.366C92.1683 176.246 92.2123 177.294 92.2123 178.512V184.1H89.0003V168.854H93.4883L97.9983 180.69C97.6756 178.68 97.5143 176.788 97.5143 175.014V168.854H100.748V184.1Z" fill="#353131"/>
<line x1="111" y1="186.6" x2="269" y2="186.6" stroke="#353131" stroke-dasharray="2 2"/>
<path d="M285.404 169.228V184.1H281.994V172.616L278.804 174.574L277.286 172.264L282.302 169.228H285.404ZM296.379 176.114C297.376 176.598 298.117 177.17 298.601 177.83C299.085 178.475 299.327 179.223 299.327 180.074C299.327 180.88 299.092 181.621 298.623 182.296C298.168 182.956 297.501 183.484 296.621 183.88C295.741 184.276 294.707 184.474 293.519 184.474C292.36 184.474 291.348 184.283 290.483 183.902C289.632 183.506 288.98 182.985 288.525 182.34C288.07 181.68 287.843 180.946 287.843 180.14C287.843 178.482 288.767 177.25 290.615 176.444C289.163 175.593 288.437 174.42 288.437 172.924C288.437 172.132 288.657 171.435 289.097 170.834C289.537 170.232 290.146 169.763 290.923 169.426C291.715 169.088 292.61 168.92 293.607 168.92C295.118 168.92 296.35 169.264 297.303 169.954C298.271 170.628 298.755 171.56 298.755 172.748C298.755 173.408 298.557 174.031 298.161 174.618C297.78 175.19 297.186 175.688 296.379 176.114ZM293.629 171.274C293.072 171.274 292.624 171.42 292.287 171.714C291.964 172.007 291.803 172.425 291.803 172.968C291.803 173.466 291.942 173.877 292.221 174.2C292.514 174.508 292.976 174.794 293.607 175.058L294.069 175.234C294.568 174.911 294.912 174.574 295.103 174.222C295.294 173.855 295.389 173.422 295.389 172.924C295.389 172.425 295.235 172.029 294.927 171.736C294.634 171.428 294.201 171.274 293.629 171.274ZM293.629 181.988C294.333 181.988 294.876 181.812 295.257 181.46C295.653 181.093 295.851 180.624 295.851 180.052C295.851 179.45 295.682 178.981 295.345 178.644C295.008 178.292 294.414 177.962 293.563 177.654L292.837 177.39C291.84 177.947 291.341 178.805 291.341 179.964C291.341 180.58 291.546 181.071 291.957 181.438C292.368 181.804 292.925 181.988 293.629 181.988ZM311.545 168.48C312.689 168.48 313.679 168.641 314.515 168.964C315.366 169.286 316.136 169.778 316.825 170.438L315.153 172.396C314.112 171.545 312.997 171.12 311.809 171.12C311.178 171.12 310.68 171.252 310.313 171.516C309.946 171.765 309.763 172.132 309.763 172.616C309.763 172.953 309.844 173.232 310.005 173.452C310.166 173.657 310.452 173.855 310.863 174.046C311.274 174.236 311.89 174.464 312.711 174.728C314.266 175.226 315.41 175.842 316.143 176.576C316.876 177.294 317.243 178.321 317.243 179.656C317.243 180.609 317.001 181.452 316.517 182.186C316.033 182.904 315.336 183.469 314.427 183.88C313.518 184.276 312.44 184.474 311.193 184.474C309.946 184.474 308.839 184.276 307.871 183.88C306.918 183.484 306.096 182.956 305.407 182.296L307.233 180.294C307.82 180.792 308.421 181.166 309.037 181.416C309.668 181.665 310.35 181.79 311.083 181.79C311.831 181.79 312.418 181.628 312.843 181.306C313.283 180.968 313.503 180.506 313.503 179.92C313.503 179.538 313.422 179.223 313.261 178.974C313.1 178.71 312.821 178.475 312.425 178.27C312.029 178.064 311.457 177.844 310.709 177.61C309.022 177.096 307.82 176.466 307.101 175.718C306.397 174.97 306.045 174.024 306.045 172.88C306.045 172 306.28 171.23 306.749 170.57C307.218 169.895 307.871 169.382 308.707 169.03C309.543 168.663 310.489 168.48 311.545 168.48ZM328.579 168.854L328.205 171.428H322.837V175.08H327.523V177.61H322.837V181.504H328.579V184.1H319.229V168.854H328.579ZM334.417 168.854V184.1H330.809V168.854H334.417ZM343.173 168.854L338.311 175.696L343.569 184.1H339.389L334.527 175.96L339.367 168.854H343.173Z" fill="#353131"/>
<rect y="195.1" width="24" height="24" rx="12" fill="#353131" fill-opacity="0.24"/>
<path fill-rule="evenodd" clip-rule="evenodd" d="M12 201.1C11.7239 201.1 11.5 201.323 11.5 201.6V206.6H6.5C6.22386 206.6 6 206.823 6 207.1C6 207.376 6.22386 207.6 6.5 207.6H11.5V212.6C11.5 212.876 11.7239 213.1 12 213.1C12.2762 213.1 12.5 212.876 12.5 212.6V207.6H17.5C17.7761 207.6 18 207.376 18 207.1C18 206.823 17.7761 206.6 17.5 206.6H12.5V201.6C12.5 201.323 12.2762 201.1 12 201.1Z" fill="#353131"/>
<path d="M37.262 202.01C37.8967 202.01 38.4427 202.126 38.9 202.36C39.3667 202.593 39.7213 202.91 39.964 203.312C40.2067 203.713 40.328 204.161 40.328 204.656C40.328 205.188 40.2113 205.701 39.978 206.196C39.754 206.681 39.376 207.222 38.844 207.82C38.312 208.417 37.5327 209.206 36.506 210.186H40.538L40.342 211.6H34.476V210.284C35.6707 209.07 36.5247 208.174 37.038 207.596C37.5607 207.008 37.9293 206.508 38.144 206.098C38.368 205.678 38.48 205.244 38.48 204.796C38.48 204.366 38.354 204.03 38.102 203.788C37.8593 203.545 37.5327 203.424 37.122 203.424C36.758 203.424 36.436 203.503 36.156 203.662C35.8853 203.811 35.6007 204.063 35.302 204.418L34.21 203.55C35.0033 202.523 36.0207 202.01 37.262 202.01ZM48.0117 203.984C49.0104 203.984 49.8877 204.278 50.6437 204.866L49.9437 205.916C49.309 205.514 48.6884 205.314 48.0817 205.314C47.727 205.314 47.4517 205.384 47.2557 205.524C47.0597 205.654 46.9617 205.832 46.9617 206.056C46.9617 206.224 47.0037 206.364 47.0877 206.476C47.1717 206.588 47.321 206.695 47.5357 206.798C47.7597 206.891 48.0864 206.998 48.5157 207.12C49.3184 207.334 49.911 207.619 50.2937 207.974C50.6857 208.328 50.8817 208.823 50.8817 209.458C50.8817 210.195 50.583 210.774 49.9857 211.194C49.3884 211.604 48.6464 211.81 47.7597 211.81C47.153 211.81 46.5977 211.716 46.0937 211.53C45.599 211.343 45.1697 211.086 44.8057 210.76L45.7017 209.752C46.3457 210.237 47.0177 210.48 47.7177 210.48C48.119 210.48 48.4364 210.4 48.6697 210.242C48.9124 210.083 49.0337 209.864 49.0337 209.584C49.0337 209.369 48.987 209.201 48.8937 209.08C48.8097 208.949 48.651 208.837 48.4177 208.744C48.1937 208.641 47.839 208.52 47.3537 208.38C46.5977 208.174 46.0424 207.89 45.6877 207.526C45.333 207.152 45.1557 206.69 45.1557 206.14C45.1557 205.729 45.2724 205.36 45.5057 205.034C45.7484 204.707 46.0844 204.45 46.5137 204.264C46.9524 204.077 47.4517 203.984 48.0117 203.984ZM56.5739 211.25C56.3126 211.436 56.0186 211.576 55.6919 211.67C55.3746 211.763 55.0479 211.81 54.7119 211.81C53.9839 211.8 53.4286 211.595 53.0459 211.194C52.6726 210.783 52.4859 210.181 52.4859 209.388V205.482H51.3239V204.194H52.4859V202.556L54.2779 202.346V204.194H55.9999L55.8179 205.482H54.2779V209.346C54.2779 209.71 54.3386 209.971 54.4599 210.13C54.5906 210.288 54.7912 210.368 55.0619 210.368C55.3326 210.368 55.6266 210.279 55.9439 210.102L56.5739 211.25ZM61.0975 211.628C60.7989 212.542 60.3462 213.252 59.7395 213.756C59.1329 214.269 58.3022 214.568 57.2475 214.652L57.0655 213.35C57.5509 213.275 57.9382 213.168 58.2275 213.028C58.5262 212.897 58.7642 212.72 58.9415 212.496C59.1189 212.272 59.2822 211.973 59.4315 211.6H58.8155L56.4635 204.194H58.3675L59.9775 210.41L61.6575 204.194H63.5055L61.0975 211.628ZM67.4955 203.984C67.9809 203.984 68.4149 204.054 68.7975 204.194C69.1895 204.334 69.5582 204.553 69.9035 204.852L69.1055 205.93C68.8535 205.743 68.6109 205.608 68.3775 205.524C68.1442 205.44 67.8875 205.398 67.6075 205.398C66.4969 205.398 65.9415 206.242 65.9415 207.932C65.9415 208.79 66.0862 209.411 66.3755 209.794C66.6649 210.167 67.0755 210.354 67.6075 210.354C67.8689 210.354 68.1069 210.312 68.3215 210.228C68.5455 210.144 68.8069 210.008 69.1055 209.822L69.9035 210.956C69.2035 211.525 68.4055 211.81 67.5095 211.81C66.8002 211.81 66.1842 211.656 65.6615 211.348C65.1389 211.03 64.7375 210.582 64.4575 210.004C64.1775 209.425 64.0375 208.744 64.0375 207.96C64.0375 207.176 64.1775 206.485 64.4575 205.888C64.7375 205.281 65.1389 204.814 65.6615 204.488C66.1842 204.152 66.7955 203.984 67.4955 203.984ZM72.9911 201.03V211.6H71.1991V201.226L72.9911 201.03ZM77.4291 204.194L74.9651 207.456L77.6671 211.6H75.6091L73.0611 207.554L75.5391 204.194H77.4291ZM84.6032 207.722C84.6032 207.815 84.5892 208.058 84.5612 208.45H79.9132C79.9692 209.168 80.1559 209.682 80.4732 209.99C80.7906 210.298 81.2106 210.452 81.7332 210.452C82.0599 210.452 82.3679 210.4 82.6572 210.298C82.9466 210.186 83.2546 210.018 83.5812 209.794L84.3232 210.816C83.5019 211.478 82.5872 211.81 81.5792 211.81C80.4499 211.81 79.5772 211.464 78.9612 210.774C78.3546 210.083 78.0512 209.14 78.0512 207.946C78.0512 207.19 78.1819 206.513 78.4432 205.916C78.7046 205.309 79.0826 204.838 79.5772 204.502C80.0719 204.156 80.6599 203.984 81.3412 203.984C82.3772 203.984 83.1799 204.315 83.7492 204.978C84.3186 205.631 84.6032 206.546 84.6032 207.722ZM82.8252 207.204C82.8252 205.906 82.3446 205.258 81.3832 205.258C80.9446 205.258 80.5992 205.421 80.3472 205.748C80.1046 206.065 79.9599 206.578 79.9132 207.288H82.8252V207.204ZM90.1588 203.984C90.8215 203.984 91.3348 204.184 91.6988 204.586C92.0721 204.978 92.2588 205.528 92.2588 206.238V211.6H90.4668V206.518C90.4668 206.079 90.3875 205.771 90.2288 205.594C90.0795 205.416 89.8555 205.328 89.5568 205.328C89.2488 205.328 88.9688 205.426 88.7168 205.622C88.4741 205.808 88.2361 206.084 88.0028 206.448V211.6H86.2108V204.194H87.7648L87.9048 205.16C88.5115 204.376 89.2628 203.984 90.1588 203.984Z" fill="#353131"/>
<rect x="104" y="195.1" width="24" height="24" rx="12" fill="#353131" fill-opacity="0.24"/>
<rect x="122" y="206.6" width="1" height="12" rx="0.5" transform="rotate(90 122 206.6)" fill="#353131"/>
<line x1="-0.000516533" y1="232.149" x2="357.996" y2="230.6" stroke="#353131" stroke-opacity="0.24" stroke-dasharray="1 1"/>
<path d="M6.336 245.029C7.48 245.029 8.47 245.191 9.306 245.513C10.1567 245.836 10.9267 246.327 11.616 246.987L9.944 248.945C8.90267 248.095 7.788 247.669 6.6 247.669C5.96933 247.669 5.47067 247.801 5.104 248.065C4.73733 248.315 4.554 248.681 4.554 249.165C4.554 249.503 4.63467 249.781 4.796 250.001C4.95733 250.207 5.24333 250.405 5.654 250.595C6.06467 250.786 6.68067 251.013 7.502 251.277C9.05667 251.776 10.2007 252.392 10.934 253.125C11.6673 253.844 12.034 254.871 12.034 256.205C12.034 257.159 11.792 258.002 11.308 258.735C10.824 259.454 10.1273 260.019 9.218 260.429C8.30867 260.825 7.23067 261.023 5.984 261.023C4.73733 261.023 3.63 260.825 2.662 260.429C1.70867 260.033 0.887333 259.505 0.198 258.845L2.024 256.843C2.61067 257.342 3.212 257.716 3.828 257.965C4.45867 258.215 5.14067 258.339 5.874 258.339C6.622 258.339 7.20867 258.178 7.634 257.855C8.074 257.518 8.294 257.056 8.294 256.469C8.294 256.088 8.21333 255.773 8.052 255.523C7.89067 255.259 7.612 255.025 7.216 254.819C6.82 254.614 6.248 254.394 5.5 254.159C3.81333 253.646 2.61067 253.015 1.892 252.267C1.188 251.519 0.836 250.573 0.836 249.429C0.836 248.549 1.07067 247.779 1.54 247.119C2.00933 246.445 2.662 245.931 3.498 245.579C4.334 245.213 5.28 245.029 6.336 245.029ZM30.789 245.403L28.237 260.649H23.551L21.659 249.011L19.657 260.649H15.081L12.573 245.403H16.181L17.699 257.921L19.811 245.403H23.595L25.575 257.921L27.357 245.403H30.789ZM41.782 245.403L41.408 247.977H36.04V251.629H40.726V254.159H36.04V258.053H41.782V260.649H32.432V245.403H41.782ZM53.362 245.403L52.988 247.977H47.62V251.629H52.306V254.159H47.62V258.053H53.362V260.649H44.012V245.403H53.362ZM66.0201 245.403L65.6681 248.175H61.9061V260.649H58.2981V248.175H54.3601V245.403H66.0201ZM78.9197 245.029C79.873 245.029 80.7163 245.169 81.4497 245.447C82.1977 245.726 82.9017 246.144 83.5617 246.701L81.8457 248.747C81.391 248.395 80.9437 248.131 80.5037 247.955C80.0637 247.779 79.5943 247.691 79.0957 247.691C78.069 247.691 77.255 248.124 76.6537 248.989C76.067 249.855 75.7737 251.189 75.7737 252.993C75.7737 254.768 76.067 256.088 76.6537 256.953C77.255 257.804 78.0837 258.229 79.1397 258.229C79.697 258.229 80.203 258.127 80.6577 257.921C81.1123 257.701 81.6037 257.393 82.1317 256.997L83.7377 259.065C83.1657 259.637 82.469 260.107 81.6477 260.473C80.841 260.84 79.9463 261.023 78.9637 261.023C77.5557 261.023 76.331 260.715 75.2897 260.099C74.2483 259.483 73.4343 258.574 72.8477 257.371C72.2757 256.154 71.9897 254.695 71.9897 252.993C71.9897 251.336 72.283 249.906 72.8697 248.703C73.471 247.501 74.2923 246.591 75.3337 245.975C76.3897 245.345 77.585 245.029 78.9197 245.029ZM93.532 260.649V254.115H88.956V260.649H85.348V245.403H88.956V251.299H93.532V245.403H97.14V260.649H93.532ZM103.608 245.403V260.649H100V245.403H103.608ZM110.054 245.403V257.789H115.994L115.62 260.649H106.446V245.403H110.054ZM121.333 245.403V260.649H117.725V245.403H121.333ZM133.637 245.403C136.028 245.403 137.942 245.946 139.379 247.031C140.831 248.102 141.557 250.075 141.557 252.949C141.557 255.78 140.853 257.775 139.445 258.933C138.037 260.077 136.211 260.649 133.967 260.649H129.391V245.403H133.637ZM132.999 248.021V258.031H134.187C135.375 258.031 136.277 257.665 136.893 256.931C137.509 256.183 137.817 254.856 137.817 252.949C137.817 251.644 137.663 250.632 137.355 249.913C137.047 249.195 136.629 248.703 136.101 248.439C135.573 248.161 134.92 248.021 134.143 248.021H132.999ZM147.329 245.403V260.649H143.721V245.403H147.329ZM155.094 245.403C157.104 245.403 158.666 245.821 159.78 246.657C160.895 247.493 161.452 248.733 161.452 250.375C161.452 252.091 160.902 253.389 159.802 254.269C158.717 255.135 157.258 255.567 155.424 255.567H153.774V260.649H150.166V245.403H155.094ZM155.116 252.971C155.967 252.971 156.612 252.773 157.052 252.377C157.507 251.967 157.734 251.299 157.734 250.375C157.734 248.777 156.84 247.977 155.05 247.977H153.774V252.971H155.116Z" fill="#353131"/>
<line x1="172" y1="266.149" x2="269" y2="266.149" stroke="#353131" stroke-dasharray="2 2"/>
<path d="M285.404 248.777V263.649H281.994V252.165L278.804 254.123L277.286 251.813L282.302 248.777H285.404ZM293.299 248.469C295.088 248.469 296.46 248.997 297.413 250.053C298.366 251.095 298.843 252.488 298.843 254.233C298.843 256.243 298.513 257.907 297.853 259.227C297.208 260.547 296.21 261.611 294.861 262.417C293.512 263.209 291.752 263.825 289.581 264.265L288.877 261.845C290.798 261.376 292.243 260.789 293.211 260.085C294.179 259.367 294.81 258.362 295.103 257.071C294.326 258.025 293.299 258.501 292.023 258.501C291.246 258.501 290.534 258.303 289.889 257.907C289.244 257.511 288.73 256.939 288.349 256.191C287.968 255.443 287.777 254.578 287.777 253.595C287.777 252.583 288.019 251.689 288.503 250.911C288.987 250.134 289.647 249.533 290.483 249.107C291.334 248.682 292.272 248.469 293.299 248.469ZM293.101 256.059C293.526 256.059 293.922 255.949 294.289 255.729C294.67 255.495 295.008 255.165 295.301 254.739C295.316 253.361 295.169 252.385 294.861 251.813C294.553 251.241 294.032 250.955 293.299 250.955C292.668 250.955 292.17 251.175 291.803 251.615C291.451 252.041 291.275 252.664 291.275 253.485C291.275 254.395 291.436 255.055 291.759 255.465C292.096 255.861 292.544 256.059 293.101 256.059ZM311.072 248.029C312.216 248.029 313.206 248.191 314.042 248.513C314.893 248.836 315.663 249.327 316.352 249.987L314.68 251.945C313.639 251.095 312.524 250.669 311.336 250.669C310.706 250.669 310.207 250.801 309.84 251.065C309.474 251.315 309.29 251.681 309.29 252.165C309.29 252.503 309.371 252.781 309.532 253.001C309.694 253.207 309.98 253.405 310.39 253.595C310.801 253.786 311.417 254.013 312.238 254.277C313.793 254.776 314.937 255.392 315.67 256.125C316.404 256.844 316.77 257.871 316.77 259.205C316.77 260.159 316.528 261.002 316.044 261.735C315.56 262.454 314.864 263.019 313.954 263.429C313.045 263.825 311.967 264.023 310.72 264.023C309.474 264.023 308.366 263.825 307.398 263.429C306.445 263.033 305.624 262.505 304.934 261.845L306.76 259.843C307.347 260.342 307.948 260.716 308.564 260.965C309.195 261.215 309.877 261.339 310.61 261.339C311.358 261.339 311.945 261.178 312.37 260.855C312.81 260.518 313.03 260.056 313.03 259.469C313.03 259.088 312.95 258.773 312.788 258.523C312.627 258.259 312.348 258.025 311.952 257.819C311.556 257.614 310.984 257.394 310.236 257.159C308.55 256.646 307.347 256.015 306.628 255.267C305.924 254.519 305.572 253.573 305.572 252.429C305.572 251.549 305.807 250.779 306.276 250.119C306.746 249.445 307.398 248.931 308.234 248.579C309.07 248.213 310.016 248.029 311.072 248.029ZM328.106 248.403L327.732 250.977H322.364V254.629H327.05V257.159H322.364V261.053H328.106V263.649H318.756V248.403H328.106ZM333.944 248.403V263.649H330.336V248.403H333.944ZM342.7 248.403L337.838 255.245L343.096 263.649H338.916L334.054 255.509L338.894 248.403H342.7Z" fill="#353131"/>
<rect y="274.649" width="24" height="24" rx="12" fill="#353131" fill-opacity="0.24"/>
<path fill-rule="evenodd" clip-rule="evenodd" d="M12 280.649C11.7239 280.649 11.5 280.873 11.5 281.149V286.149H6.5C6.22386 286.149 6 286.373 6 286.649C6 286.925 6.22386 287.149 6.5 287.149H11.5V292.149C11.5 292.425 11.7239 292.649 12 292.649C12.2762 292.649 12.5 292.425 12.5 292.149V287.149H17.5C17.7761 287.149 18 286.925 18 286.649C18 286.373 17.7761 286.149 17.5 286.149H12.5V281.149C12.5 280.873 12.2762 280.649 12 280.649Z" fill="#353131"/>
<path d="M38.97 281.727V291.149H37.206V283.533L35.106 284.807L34.322 283.603L37.388 281.727H38.97ZM47.2187 283.533C48.2174 283.533 49.0947 283.827 49.8507 284.415L49.1507 285.465C48.5161 285.064 47.8954 284.863 47.2887 284.863C46.9341 284.863 46.6587 284.933 46.4627 285.073C46.2667 285.204 46.1687 285.381 46.1687 285.605C46.1687 285.773 46.2107 285.913 46.2947 286.025C46.3787 286.137 46.5281 286.245 46.7427 286.347C46.9667 286.441 47.2934 286.548 47.7227 286.669C48.5254 286.884 49.1181 287.169 49.5007 287.523C49.8927 287.878 50.0887 288.373 50.0887 289.007C50.0887 289.745 49.7901 290.323 49.1927 290.743C48.5954 291.154 47.8534 291.359 46.9667 291.359C46.3601 291.359 45.8047 291.266 45.3007 291.079C44.8061 290.893 44.3767 290.636 44.0127 290.309L44.9087 289.301C45.5527 289.787 46.2247 290.029 46.9247 290.029C47.3261 290.029 47.6434 289.95 47.8767 289.791C48.1194 289.633 48.2407 289.413 48.2407 289.133C48.2407 288.919 48.1941 288.751 48.1007 288.629C48.0167 288.499 47.8581 288.387 47.6247 288.293C47.4007 288.191 47.0461 288.069 46.5607 287.929C45.8047 287.724 45.2494 287.439 44.8947 287.075C44.5401 286.702 44.3627 286.24 44.3627 285.689C44.3627 285.279 44.4794 284.91 44.7127 284.583C44.9554 284.257 45.2914 284 45.7207 283.813C46.1594 283.627 46.6587 283.533 47.2187 283.533ZM55.7809 290.799C55.5196 290.986 55.2256 291.126 54.8989 291.219C54.5816 291.313 54.2549 291.359 53.9189 291.359C53.1909 291.35 52.6356 291.145 52.2529 290.743C51.8796 290.333 51.6929 289.731 51.6929 288.937V285.031H50.5309V283.743H51.6929V282.105L53.4849 281.895V283.743H55.2069L55.0249 285.031H53.4849V288.895C53.4849 289.259 53.5456 289.521 53.6669 289.679C53.7976 289.838 53.9983 289.917 54.2689 289.917C54.5396 289.917 54.8336 289.829 55.1509 289.651L55.7809 290.799ZM60.3046 291.177C60.0059 292.092 59.5532 292.801 58.9466 293.305C58.3399 293.819 57.5092 294.117 56.4546 294.201L56.2726 292.899C56.7579 292.825 57.1452 292.717 57.4346 292.577C57.7332 292.447 57.9712 292.269 58.1486 292.045C58.3259 291.821 58.4892 291.523 58.6386 291.149H58.0226L55.6706 283.743H57.5746L59.1846 289.959L60.8646 283.743H62.7126L60.3046 291.177ZM66.7026 283.533C67.1879 283.533 67.6219 283.603 68.0046 283.743C68.3966 283.883 68.7652 284.103 69.1106 284.401L68.3126 285.479C68.0606 285.293 67.8179 285.157 67.5846 285.073C67.3512 284.989 67.0946 284.947 66.8146 284.947C65.7039 284.947 65.1486 285.792 65.1486 287.481C65.1486 288.34 65.2932 288.961 65.5826 289.343C65.8719 289.717 66.2826 289.903 66.8146 289.903C67.0759 289.903 67.3139 289.861 67.5286 289.777C67.7526 289.693 68.0139 289.558 68.3126 289.371L69.1106 290.505C68.4106 291.075 67.6126 291.359 66.7166 291.359C66.0072 291.359 65.3912 291.205 64.8686 290.897C64.3459 290.58 63.9446 290.132 63.6646 289.553C63.3846 288.975 63.2446 288.293 63.2446 287.509C63.2446 286.725 63.3846 286.035 63.6646 285.437C63.9446 284.831 64.3459 284.364 64.8686 284.037C65.3912 283.701 66.0026 283.533 66.7026 283.533ZM72.1981 280.579V291.149H70.4061V280.775L72.1981 280.579ZM76.6361 283.743L74.1721 287.005L76.8741 291.149H74.8161L72.2681 287.103L74.7461 283.743H76.6361ZM83.8103 287.271C83.8103 287.365 83.7963 287.607 83.7683 287.999H79.1203C79.1763 288.718 79.3629 289.231 79.6803 289.539C79.9976 289.847 80.4176 290.001 80.9403 290.001C81.2669 290.001 81.5749 289.95 81.8643 289.847C82.1536 289.735 82.4616 289.567 82.7883 289.343L83.5303 290.365C82.7089 291.028 81.7943 291.359 80.7863 291.359C79.6569 291.359 78.7843 291.014 78.1683 290.323C77.5616 289.633 77.2583 288.69 77.2583 287.495C77.2583 286.739 77.3889 286.063 77.6503 285.465C77.9116 284.859 78.2896 284.387 78.7843 284.051C79.2789 283.706 79.8669 283.533 80.5483 283.533C81.5843 283.533 82.3869 283.865 82.9563 284.527C83.5256 285.181 83.8103 286.095 83.8103 287.271ZM82.0323 286.753C82.0323 285.456 81.5516 284.807 80.5903 284.807C80.1516 284.807 79.8063 284.971 79.5543 285.297C79.3116 285.615 79.1669 286.128 79.1203 286.837H82.0323V286.753ZM89.3658 283.533C90.0285 283.533 90.5418 283.734 90.9058 284.135C91.2792 284.527 91.4658 285.078 91.4658 285.787V291.149H89.6738V286.067C89.6738 285.629 89.5945 285.321 89.4358 285.143C89.2865 284.966 89.0625 284.877 88.7638 284.877C88.4558 284.877 88.1758 284.975 87.9238 285.171C87.6812 285.358 87.4432 285.633 87.2098 285.997V291.149H85.4178V283.743H86.9718L87.1118 284.709C87.7185 283.925 88.4698 283.533 89.3658 283.533Z" fill="#353131"/>
<rect x="103" y="274.649" width="24" height="24" rx="12" fill="#353131" fill-opacity="0.24"/>
<rect x="121" y="286.149" width="1" height="12" rx="0.5" transform="rotate(90 121 286.149)" fill="#353131"/>
<line x1="-0.000516533" y1="311.699" x2="357.996" y2="310.149" stroke="#353131" stroke-opacity="0.24" stroke-dasharray="1 1"/>
<path d="M8.03 324.579C9.99533 324.579 11.6893 325.202 13.112 326.449L11.286 328.363C10.7433 327.952 10.2373 327.659 9.768 327.483C9.31333 327.292 8.78533 327.197 8.184 327.197C7.05467 327.197 6.15267 327.644 5.478 328.539C4.80333 329.419 4.466 330.761 4.466 332.565C4.466 334.516 4.72267 335.902 5.236 336.723C5.74933 337.53 6.54867 337.933 7.634 337.933C8.39667 337.933 9.086 337.764 9.702 337.427V333.973H7.722L7.37 331.421H13.2V338.967C12.408 339.48 11.5353 339.876 10.582 340.155C9.62867 340.434 8.67533 340.573 7.722 340.573C5.40467 340.573 3.65933 339.898 2.486 338.549C1.31267 337.185 0.726 335.19 0.726 332.565C0.726 330.893 1.04133 329.456 1.672 328.253C2.31733 327.05 3.19 326.141 4.29 325.525C5.40467 324.894 6.65133 324.579 8.03 324.579ZM27.2917 335.139C27.2917 336.18 27.0644 337.112 26.6097 337.933C26.1697 338.754 25.5024 339.4 24.6077 339.869C23.713 340.338 22.6204 340.573 21.3297 340.573C19.3937 340.573 17.9197 340.082 16.9077 339.099C15.8957 338.116 15.3897 336.796 15.3897 335.139V324.953H18.9977V334.985C18.9977 335.968 19.181 336.701 19.5477 337.185C19.929 337.654 20.523 337.889 21.3297 337.889C22.151 337.889 22.745 337.654 23.1117 337.185C23.493 336.701 23.6837 335.968 23.6837 334.985V324.953H27.2917V335.139ZM37.7549 340.199L36.9629 336.921H32.5189L31.7489 340.199H28.0089L32.6069 324.953H36.9849L41.5829 340.199H37.7549ZM33.1349 334.303H36.3469L34.7409 327.571L33.1349 334.303ZM48.7126 324.579C49.666 324.579 50.5093 324.718 51.2426 324.997C51.9906 325.276 52.6946 325.694 53.3546 326.251L51.6386 328.297C51.184 327.945 50.7366 327.681 50.2966 327.505C49.8566 327.329 49.3873 327.241 48.8886 327.241C47.862 327.241 47.048 327.674 46.4466 328.539C45.86 329.404 45.5666 330.739 45.5666 332.543C45.5666 334.318 45.86 335.638 46.4466 336.503C47.048 337.354 47.8766 337.779 48.9326 337.779C49.49 337.779 49.996 337.676 50.4506 337.471C50.9053 337.251 51.3966 336.943 51.9246 336.547L53.5306 338.615C52.9586 339.187 52.262 339.656 51.4406 340.023C50.634 340.39 49.7393 340.573 48.7566 340.573C47.3486 340.573 46.124 340.265 45.0826 339.649C44.0413 339.033 43.2273 338.124 42.6406 336.921C42.0686 335.704 41.7826 334.244 41.7826 332.543C41.7826 330.886 42.076 329.456 42.6626 328.253C43.264 327.05 44.0853 326.141 45.1266 325.525C46.1826 324.894 47.378 324.579 48.7126 324.579ZM63.1709 340.199L62.3789 336.921H57.9349L57.1649 340.199H53.4249L58.0229 324.953H62.4009L66.9989 340.199H63.1709ZM58.5509 334.303H61.7629L60.1569 327.571L58.5509 334.303ZM83.2535 340.199H79.7115L79.4475 334.237C79.3742 332.814 79.3375 331.546 79.3375 330.431C79.3375 329.58 79.3595 328.774 79.4035 328.011L77.0495 338.593H73.6395L71.1315 328.011C71.2195 329.287 71.2635 330.49 71.2635 331.619C71.2635 332.47 71.2415 333.357 71.1975 334.281L70.9335 340.199H67.4135L68.5575 324.953H73.1115L75.3995 335.293L77.5335 324.953H82.1095L83.2535 340.199ZM91.3576 324.579C93.5282 324.579 95.2149 325.276 96.4176 326.669C97.6349 328.062 98.2436 330.028 98.2436 332.565C98.2436 334.222 97.9649 335.652 97.4076 336.855C96.8649 338.058 96.0729 338.982 95.0316 339.627C94.0049 340.258 92.7802 340.573 91.3576 340.573C89.9349 340.573 88.7102 340.258 87.6836 339.627C86.6569 338.996 85.8649 338.087 85.3076 336.899C84.7649 335.696 84.4936 334.252 84.4936 332.565C84.4936 330.922 84.7649 329.5 85.3076 328.297C85.8649 327.094 86.6569 326.178 87.6836 325.547C88.7102 324.902 89.9349 324.579 91.3576 324.579ZM91.3576 327.219C90.3162 327.219 89.5389 327.644 89.0256 328.495C88.5269 329.331 88.2776 330.688 88.2776 332.565C88.2776 334.442 88.5342 335.806 89.0476 336.657C89.5609 337.508 90.3309 337.933 91.3576 337.933C92.4136 337.933 93.1909 337.515 93.6896 336.679C94.2029 335.828 94.4596 334.457 94.4596 332.565C94.4596 330.673 94.2029 329.309 93.6896 328.473C93.1762 327.637 92.3989 327.219 91.3576 327.219ZM104.017 324.953V337.339H109.957L109.583 340.199H100.409V324.953H104.017ZM121.038 324.953L120.664 327.527H115.296V331.179H119.982V333.709H115.296V337.603H121.038V340.199H111.688V324.953H121.038Z" fill="#353131"/>
<line x1="132" y1="342.699" x2="269" y2="342.699" stroke="#353131" stroke-dasharray="2 2"/>
<path d="M285.404 325.327V340.199H281.994V328.715L278.804 330.673L277.286 328.363L282.302 325.327H285.404ZM293.299 325.019C295.088 325.019 296.46 325.547 297.413 326.603C298.366 327.644 298.843 329.038 298.843 330.783C298.843 332.792 298.513 334.457 297.853 335.777C297.208 337.097 296.21 338.16 294.861 338.967C293.512 339.759 291.752 340.375 289.581 340.815L288.877 338.395C290.798 337.926 292.243 337.339 293.211 336.635C294.179 335.916 294.81 334.912 295.103 333.621C294.326 334.574 293.299 335.051 292.023 335.051C291.246 335.051 290.534 334.853 289.889 334.457C289.244 334.061 288.73 333.489 288.349 332.741C287.968 331.993 287.777 331.128 287.777 330.145C287.777 329.133 288.019 328.238 288.503 327.461C288.987 326.684 289.647 326.082 290.483 325.657C291.334 325.232 292.272 325.019 293.299 325.019ZM293.101 332.609C293.526 332.609 293.922 332.499 294.289 332.279C294.67 332.044 295.008 331.714 295.301 331.289C295.316 329.91 295.169 328.935 294.861 328.363C294.553 327.791 294.032 327.505 293.299 327.505C292.668 327.505 292.17 327.725 291.803 328.165C291.451 328.59 291.275 329.214 291.275 330.035C291.275 330.944 291.436 331.604 291.759 332.015C292.096 332.411 292.544 332.609 293.101 332.609ZM311.072 324.579C312.216 324.579 313.206 324.74 314.042 325.063C314.893 325.386 315.663 325.877 316.352 326.537L314.68 328.495C313.639 327.644 312.524 327.219 311.336 327.219C310.706 327.219 310.207 327.351 309.84 327.615C309.474 327.864 309.29 328.231 309.29 328.715C309.29 329.052 309.371 329.331 309.532 329.551C309.694 329.756 309.98 329.954 310.39 330.145C310.801 330.336 311.417 330.563 312.238 330.827C313.793 331.326 314.937 331.942 315.67 332.675C316.404 333.394 316.77 334.42 316.77 335.755C316.77 336.708 316.528 337.552 316.044 338.285C315.56 339.004 314.864 339.568 313.954 339.979C313.045 340.375 311.967 340.573 310.72 340.573C309.474 340.573 308.366 340.375 307.398 339.979C306.445 339.583 305.624 339.055 304.934 338.395L306.76 336.393C307.347 336.892 307.948 337.266 308.564 337.515C309.195 337.764 309.877 337.889 310.61 337.889C311.358 337.889 311.945 337.728 312.37 337.405C312.81 337.068 313.03 336.606 313.03 336.019C313.03 335.638 312.95 335.322 312.788 335.073C312.627 334.809 312.348 334.574 311.952 334.369C311.556 334.164 310.984 333.944 310.236 333.709C308.55 333.196 307.347 332.565 306.628 331.817C305.924 331.069 305.572 330.123 305.572 328.979C305.572 328.099 305.807 327.329 306.276 326.669C306.746 325.994 307.398 325.481 308.234 325.129C309.07 324.762 310.016 324.579 311.072 324.579ZM328.106 324.953L327.732 327.527H322.364V331.179H327.05V333.709H322.364V337.603H328.106V340.199H318.756V324.953H328.106ZM333.944 324.953V340.199H330.336V324.953H333.944ZM342.7 324.953L337.838 331.795L343.096 340.199H338.916L334.054 332.059L338.894 324.953H342.7Z" fill="#353131"/>
<rect y="351.199" width="24" height="24" rx="12" fill="#353131" fill-opacity="0.24"/>
<path fill-rule="evenodd" clip-rule="evenodd" d="M12 357.199C11.7239 357.199 11.5 357.423 11.5 357.699V362.699H6.5C6.22386 362.699 6 362.923 6 363.199C6 363.475 6.22386 363.699 6.5 363.699H11.5V368.699C11.5 368.975 11.7239 369.199 12 369.199C12.2762 369.199 12.5 368.975 12.5 368.699V363.699H17.5C17.7761 363.699 18 363.475 18 363.199C18 362.923 17.7761 362.699 17.5 362.699H12.5V357.699C12.5 357.423 12.2762 357.199 12 357.199Z" fill="#353131"/>
<path d="M38.97 358.277V367.699H37.206V360.083L35.106 361.357L34.322 360.153L37.388 358.277H38.97ZM47.2187 360.083C48.2174 360.083 49.0947 360.377 49.8507 360.965L49.1507 362.015C48.5161 361.614 47.8954 361.413 47.2887 361.413C46.9341 361.413 46.6587 361.483 46.4627 361.623C46.2667 361.754 46.1687 361.931 46.1687 362.155C46.1687 362.323 46.2107 362.463 46.2947 362.575C46.3787 362.687 46.5281 362.794 46.7427 362.897C46.9667 362.99 47.2934 363.098 47.7227 363.219C48.5254 363.434 49.1181 363.718 49.5007 364.073C49.8927 364.428 50.0887 364.922 50.0887 365.557C50.0887 366.294 49.7901 366.873 49.1927 367.293C48.5954 367.704 47.8534 367.909 46.9667 367.909C46.3601 367.909 45.8047 367.816 45.3007 367.629C44.8061 367.442 44.3767 367.186 44.0127 366.859L44.9087 365.851C45.5527 366.336 46.2247 366.579 46.9247 366.579C47.3261 366.579 47.6434 366.5 47.8767 366.341C48.1194 366.182 48.2407 365.963 48.2407 365.683C48.2407 365.468 48.1941 365.3 48.1007 365.179C48.0167 365.048 47.8581 364.936 47.6247 364.843C47.4007 364.74 47.0461 364.619 46.5607 364.479C45.8047 364.274 45.2494 363.989 44.8947 363.625C44.5401 363.252 44.3627 362.79 44.3627 362.239C44.3627 361.828 44.4794 361.46 44.7127 361.133C44.9554 360.806 45.2914 360.55 45.7207 360.363C46.1594 360.176 46.6587 360.083 47.2187 360.083ZM55.7809 367.349C55.5196 367.536 55.2256 367.676 54.8989 367.769C54.5816 367.862 54.2549 367.909 53.9189 367.909C53.1909 367.9 52.6356 367.694 52.2529 367.293C51.8796 366.882 51.6929 366.28 51.6929 365.487V361.581H50.5309V360.293H51.6929V358.655L53.4849 358.445V360.293H55.2069L55.0249 361.581H53.4849V365.445C53.4849 365.809 53.5456 366.07 53.6669 366.229C53.7976 366.388 53.9983 366.467 54.2689 366.467C54.5396 366.467 54.8336 366.378 55.1509 366.201L55.7809 367.349ZM60.3046 367.727C60.0059 368.642 59.5532 369.351 58.9466 369.855C58.3399 370.368 57.5092 370.667 56.4546 370.751L56.2726 369.449C56.7579 369.374 57.1452 369.267 57.4346 369.127C57.7332 368.996 57.9712 368.819 58.1486 368.595C58.3259 368.371 58.4892 368.072 58.6386 367.699H58.0226L55.6706 360.293H57.5746L59.1846 366.509L60.8646 360.293H62.7126L60.3046 367.727ZM66.7026 360.083C67.1879 360.083 67.6219 360.153 68.0046 360.293C68.3966 360.433 68.7652 360.652 69.1106 360.951L68.3126 362.029C68.0606 361.842 67.8179 361.707 67.5846 361.623C67.3512 361.539 67.0946 361.497 66.8146 361.497C65.7039 361.497 65.1486 362.342 65.1486 364.031C65.1486 364.89 65.2932 365.51 65.5826 365.893C65.8719 366.266 66.2826 366.453 66.8146 366.453C67.0759 366.453 67.3139 366.411 67.5286 366.327C67.7526 366.243 68.0139 366.108 68.3126 365.921L69.1106 367.055C68.4106 367.624 67.6126 367.909 66.7166 367.909C66.0072 367.909 65.3912 367.755 64.8686 367.447C64.3459 367.13 63.9446 366.682 63.6646 366.103C63.3846 365.524 63.2446 364.843 63.2446 364.059C63.2446 363.275 63.3846 362.584 63.6646 361.987C63.9446 361.38 64.3459 360.914 64.8686 360.587C65.3912 360.251 66.0026 360.083 66.7026 360.083ZM72.1981 357.129V367.699H70.4061V357.325L72.1981 357.129ZM76.6361 360.293L74.1721 363.555L76.8741 367.699H74.8161L72.2681 363.653L74.7461 360.293H76.6361ZM83.8103 363.821C83.8103 363.914 83.7963 364.157 83.7683 364.549H79.1203C79.1763 365.268 79.3629 365.781 79.6803 366.089C79.9976 366.397 80.4176 366.551 80.9403 366.551C81.2669 366.551 81.5749 366.5 81.8643 366.397C82.1536 366.285 82.4616 366.117 82.7883 365.893L83.5303 366.915C82.7089 367.578 81.7943 367.909 80.7863 367.909C79.6569 367.909 78.7843 367.564 78.1683 366.873C77.5616 366.182 77.2583 365.24 77.2583 364.045C77.2583 363.289 77.3889 362.612 77.6503 362.015C77.9116 361.408 78.2896 360.937 78.7843 360.601C79.2789 360.256 79.8669 360.083 80.5483 360.083C81.5843 360.083 82.3869 360.414 82.9563 361.077C83.5256 361.73 83.8103 362.645 83.8103 363.821ZM82.0323 363.303C82.0323 362.006 81.5516 361.357 80.5903 361.357C80.1516 361.357 79.8063 361.52 79.5543 361.847C79.3116 362.164 79.1669 362.678 79.1203 363.387H82.0323V363.303ZM89.3658 360.083C90.0285 360.083 90.5418 360.284 90.9058 360.685C91.2792 361.077 91.4658 361.628 91.4658 362.337V367.699H89.6738V362.617C89.6738 362.178 89.5945 361.87 89.4358 361.693C89.2865 361.516 89.0625 361.427 88.7638 361.427C88.4558 361.427 88.1758 361.525 87.9238 361.721C87.6812 361.908 87.4432 362.183 87.2098 362.547V367.699H85.4178V360.293H86.9718L87.1118 361.259C87.7185 360.475 88.4698 360.083 89.3658 360.083Z" fill="#353131"/>
<rect x="103" y="351.199" width="24" height="24" rx="12" fill="#353131" fill-opacity="0.24"/>
<rect x="121" y="362.699" width="1" height="12" rx="0.5" transform="rotate(90 121 362.699)" fill="#353131"/>
<path d="M1.43 415.199V399.953H10.516L10.142 402.527H5.038V406.575H9.482V409.149H5.038V415.199H1.43ZM19.085 415.199L18.293 411.921H13.849L13.079 415.199H9.339L13.937 399.953H18.315L22.913 415.199H19.085ZM14.465 409.303H17.677L16.071 402.571L14.465 409.303ZM35.7796 415.199H31.1816L26.7816 403.385C26.9282 404.544 27.0382 405.57 27.1116 406.465C27.1996 407.345 27.2436 408.394 27.2436 409.611V415.199H24.0316V399.953H28.5196L33.0296 411.789C32.7069 409.78 32.5456 407.888 32.5456 406.113V399.953H35.7796V415.199ZM49.0475 399.953L48.6955 402.725H44.9335V415.199H41.3255V402.725H37.3875V399.953H49.0475ZM57.4346 415.199L56.6426 411.921H52.1986L51.4286 415.199H47.6886L52.2866 399.953H56.6646L61.2626 415.199H57.4346ZM52.8146 409.303H56.0266L54.4206 402.571L52.8146 409.303ZM73.7619 399.579C75.9325 399.579 77.6192 400.276 78.8219 401.669C80.0392 403.062 80.6479 405.028 80.6479 407.565C80.6479 409.222 80.3692 410.652 79.8119 411.855C79.2692 413.058 78.4772 413.982 77.4359 414.627C76.4092 415.258 75.1845 415.573 73.7619 415.573C72.3392 415.573 71.1145 415.258 70.0879 414.627C69.0612 413.996 68.2692 413.087 67.7119 411.899C67.1692 410.696 66.8979 409.252 66.8979 407.565C66.8979 405.922 67.1692 404.5 67.7119 403.297C68.2692 402.094 69.0612 401.178 70.0879 400.547C71.1145 399.902 72.3392 399.579 73.7619 399.579ZM73.7619 402.219C72.7205 402.219 71.9432 402.644 71.4299 403.495C70.9312 404.331 70.6819 405.688 70.6819 407.565C70.6819 409.442 70.9385 410.806 71.4519 411.657C71.9652 412.508 72.7352 412.933 73.7619 412.933C74.8179 412.933 75.5952 412.515 76.0939 411.679C76.6072 410.828 76.8639 409.457 76.8639 407.565C76.8639 405.673 76.6072 404.309 76.0939 403.473C75.5805 402.637 74.8032 402.219 73.7619 402.219ZM87.8288 409.369H86.4208V415.199H82.8128V399.953H87.8068C89.8895 399.953 91.4515 400.334 92.4928 401.097C93.5488 401.86 94.0768 403.026 94.0768 404.595C94.0768 405.578 93.8421 406.399 93.3728 407.059C92.9035 407.704 92.1628 408.254 91.1508 408.709L95.0228 415.199H90.9528L87.8288 409.369ZM86.4208 406.883H87.9388C88.7455 406.883 89.3468 406.7 89.7428 406.333C90.1535 405.966 90.3588 405.387 90.3588 404.595C90.3588 403.862 90.1388 403.326 89.6988 402.989C89.2735 402.652 88.6135 402.483 87.7188 402.483H86.4208V406.883ZM104.421 415.199L103.629 411.921H99.1849L98.4149 415.199H94.6749L99.2729 399.953H103.651L108.249 415.199H104.421ZM99.8009 409.303H103.013L101.407 402.571L99.8009 409.303ZM121.116 415.199H116.518L112.118 403.385C112.264 404.544 112.374 405.57 112.448 406.465C112.536 407.345 112.58 408.394 112.58 409.611V415.199H109.368V399.953H113.856L118.366 411.789C118.043 409.78 117.882 407.888 117.882 406.113V399.953H121.116V415.199ZM130.555 399.579C132.521 399.579 134.215 400.202 135.637 401.449L133.811 403.363C133.269 402.952 132.763 402.659 132.293 402.483C131.839 402.292 131.311 402.197 130.709 402.197C129.58 402.197 128.678 402.644 128.003 403.539C127.329 404.419 126.991 405.761 126.991 407.565C126.991 409.516 127.248 410.902 127.761 411.723C128.275 412.53 129.074 412.933 130.159 412.933C130.922 412.933 131.611 412.764 132.227 412.427V408.973H130.247L129.895 406.421H135.725V413.967C134.933 414.48 134.061 414.876 133.107 415.155C132.154 415.434 131.201 415.573 130.247 415.573C127.93 415.573 126.185 414.898 125.011 413.549C123.838 412.185 123.251 410.19 123.251 407.565C123.251 405.893 123.567 404.456 124.197 403.253C124.843 402.05 125.715 401.141 126.815 400.525C127.93 399.894 129.177 399.579 130.555 399.579ZM147.485 399.953L147.111 402.527H141.743V406.179H146.429V408.709H141.743V412.603H147.485V415.199H138.135V399.953H147.485Z" fill="#353131"/>
<line x1="159" y1="417.699" x2="269" y2="417.699" stroke="#353131" stroke-dasharray="2 2"/>
<path d="M285.404 400.327V415.199H281.994V403.715L278.804 405.673L277.286 403.363L282.302 400.327H285.404ZM293.299 400.019C295.088 400.019 296.46 400.547 297.413 401.603C298.366 402.644 298.843 404.038 298.843 405.783C298.843 407.792 298.513 409.457 297.853 410.777C297.208 412.097 296.21 413.16 294.861 413.967C293.512 414.759 291.752 415.375 289.581 415.815L288.877 413.395C290.798 412.926 292.243 412.339 293.211 411.635C294.179 410.916 294.81 409.912 295.103 408.621C294.326 409.574 293.299 410.051 292.023 410.051C291.246 410.051 290.534 409.853 289.889 409.457C289.244 409.061 288.73 408.489 288.349 407.741C287.968 406.993 287.777 406.128 287.777 405.145C287.777 404.133 288.019 403.238 288.503 402.461C288.987 401.684 289.647 401.082 290.483 400.657C291.334 400.232 292.272 400.019 293.299 400.019ZM293.101 407.609C293.526 407.609 293.922 407.499 294.289 407.279C294.67 407.044 295.008 406.714 295.301 406.289C295.316 404.91 295.169 403.935 294.861 403.363C294.553 402.791 294.032 402.505 293.299 402.505C292.668 402.505 292.17 402.725 291.803 403.165C291.451 403.59 291.275 404.214 291.275 405.035C291.275 405.944 291.436 406.604 291.759 407.015C292.096 407.411 292.544 407.609 293.101 407.609ZM311.072 399.579C312.216 399.579 313.206 399.74 314.042 400.063C314.893 400.386 315.663 400.877 316.352 401.537L314.68 403.495C313.639 402.644 312.524 402.219 311.336 402.219C310.706 402.219 310.207 402.351 309.84 402.615C309.474 402.864 309.29 403.231 309.29 403.715C309.29 404.052 309.371 404.331 309.532 404.551C309.694 404.756 309.98 404.954 310.39 405.145C310.801 405.336 311.417 405.563 312.238 405.827C313.793 406.326 314.937 406.942 315.67 407.675C316.404 408.394 316.77 409.42 316.77 410.755C316.77 411.708 316.528 412.552 316.044 413.285C315.56 414.004 314.864 414.568 313.954 414.979C313.045 415.375 311.967 415.573 310.72 415.573C309.474 415.573 308.366 415.375 307.398 414.979C306.445 414.583 305.624 414.055 304.934 413.395L306.76 411.393C307.347 411.892 307.948 412.266 308.564 412.515C309.195 412.764 309.877 412.889 310.61 412.889C311.358 412.889 311.945 412.728 312.37 412.405C312.81 412.068 313.03 411.606 313.03 411.019C313.03 410.638 312.95 410.322 312.788 410.073C312.627 409.809 312.348 409.574 311.952 409.369C311.556 409.164 310.984 408.944 310.236 408.709C308.55 408.196 307.347 407.565 306.628 406.817C305.924 406.069 305.572 405.123 305.572 403.979C305.572 403.099 305.807 402.329 306.276 401.669C306.746 400.994 307.398 400.481 308.234 400.129C309.07 399.762 310.016 399.579 311.072 399.579ZM328.106 399.953L327.732 402.527H322.364V406.179H327.05V408.709H322.364V412.603H328.106V415.199H318.756V399.953H328.106ZM333.944 399.953V415.199H330.336V399.953H333.944ZM342.7 399.953L337.838 406.795L343.096 415.199H338.916L334.054 407.059L338.894 399.953H342.7Z" fill="#353131"/>
<rect y="426.199" width="24" height="24" rx="12" fill="#353131" fill-opacity="0.24"/>
<path fill-rule="evenodd" clip-rule="evenodd" d="M12 432.199C11.7239 432.199 11.5 432.423 11.5 432.699V437.699H6.5C6.22386 437.699 6 437.923 6 438.199C6 438.475 6.22386 438.699 6.5 438.699H11.5V443.699C11.5 443.975 11.7239 444.199 12 444.199C12.2762 444.199 12.5 443.975 12.5 443.699V438.699H17.5C17.7761 438.699 18 438.475 18 438.199C18 437.923 17.7761 437.699 17.5 437.699H12.5V432.699C12.5 432.423 12.2762 432.199 12 432.199Z" fill="#353131"/>
<path d="M38.97 433.277V442.699H37.206V435.083L35.106 436.357L34.322 435.153L37.388 433.277H38.97ZM47.2187 435.083C48.2174 435.083 49.0947 435.377 49.8507 435.965L49.1507 437.015C48.5161 436.614 47.8954 436.413 47.2887 436.413C46.9341 436.413 46.6587 436.483 46.4627 436.623C46.2667 436.754 46.1687 436.931 46.1687 437.155C46.1687 437.323 46.2107 437.463 46.2947 437.575C46.3787 437.687 46.5281 437.794 46.7427 437.897C46.9667 437.99 47.2934 438.098 47.7227 438.219C48.5254 438.434 49.1181 438.718 49.5007 439.073C49.8927 439.428 50.0887 439.922 50.0887 440.557C50.0887 441.294 49.7901 441.873 49.1927 442.293C48.5954 442.704 47.8534 442.909 46.9667 442.909C46.3601 442.909 45.8047 442.816 45.3007 442.629C44.8061 442.442 44.3767 442.186 44.0127 441.859L44.9087 440.851C45.5527 441.336 46.2247 441.579 46.9247 441.579C47.3261 441.579 47.6434 441.5 47.8767 441.341C48.1194 441.182 48.2407 440.963 48.2407 440.683C48.2407 440.468 48.1941 440.3 48.1007 440.179C48.0167 440.048 47.8581 439.936 47.6247 439.843C47.4007 439.74 47.0461 439.619 46.5607 439.479C45.8047 439.274 45.2494 438.989 44.8947 438.625C44.5401 438.252 44.3627 437.79 44.3627 437.239C44.3627 436.828 44.4794 436.46 44.7127 436.133C44.9554 435.806 45.2914 435.55 45.7207 435.363C46.1594 435.176 46.6587 435.083 47.2187 435.083ZM55.7809 442.349C55.5196 442.536 55.2256 442.676 54.8989 442.769C54.5816 442.862 54.2549 442.909 53.9189 442.909C53.1909 442.9 52.6356 442.694 52.2529 442.293C51.8796 441.882 51.6929 441.28 51.6929 440.487V436.581H50.5309V435.293H51.6929V433.655L53.4849 433.445V435.293H55.2069L55.0249 436.581H53.4849V440.445C53.4849 440.809 53.5456 441.07 53.6669 441.229C53.7976 441.388 53.9983 441.467 54.2689 441.467C54.5396 441.467 54.8336 441.378 55.1509 441.201L55.7809 442.349ZM60.3046 442.727C60.0059 443.642 59.5532 444.351 58.9466 444.855C58.3399 445.368 57.5092 445.667 56.4546 445.751L56.2726 444.449C56.7579 444.374 57.1452 444.267 57.4346 444.127C57.7332 443.996 57.9712 443.819 58.1486 443.595C58.3259 443.371 58.4892 443.072 58.6386 442.699H58.0226L55.6706 435.293H57.5746L59.1846 441.509L60.8646 435.293H62.7126L60.3046 442.727ZM66.7026 435.083C67.1879 435.083 67.6219 435.153 68.0046 435.293C68.3966 435.433 68.7652 435.652 69.1106 435.951L68.3126 437.029C68.0606 436.842 67.8179 436.707 67.5846 436.623C67.3512 436.539 67.0946 436.497 66.8146 436.497C65.7039 436.497 65.1486 437.342 65.1486 439.031C65.1486 439.89 65.2932 440.51 65.5826 440.893C65.8719 441.266 66.2826 441.453 66.8146 441.453C67.0759 441.453 67.3139 441.411 67.5286 441.327C67.7526 441.243 68.0139 441.108 68.3126 440.921L69.1106 442.055C68.4106 442.624 67.6126 442.909 66.7166 442.909C66.0072 442.909 65.3912 442.755 64.8686 442.447C64.3459 442.13 63.9446 441.682 63.6646 441.103C63.3846 440.524 63.2446 439.843 63.2446 439.059C63.2446 438.275 63.3846 437.584 63.6646 436.987C63.9446 436.38 64.3459 435.914 64.8686 435.587C65.3912 435.251 66.0026 435.083 66.7026 435.083ZM72.1981 432.129V442.699H70.4061V432.325L72.1981 432.129ZM76.6361 435.293L74.1721 438.555L76.8741 442.699H74.8161L72.2681 438.653L74.7461 435.293H76.6361ZM83.8103 438.821C83.8103 438.914 83.7963 439.157 83.7683 439.549H79.1203C79.1763 440.268 79.3629 440.781 79.6803 441.089C79.9976 441.397 80.4176 441.551 80.9403 441.551C81.2669 441.551 81.5749 441.5 81.8643 441.397C82.1536 441.285 82.4616 441.117 82.7883 440.893L83.5303 441.915C82.7089 442.578 81.7943 442.909 80.7863 442.909C79.6569 442.909 78.7843 442.564 78.1683 441.873C77.5616 441.182 77.2583 440.24 77.2583 439.045C77.2583 438.289 77.3889 437.612 77.6503 437.015C77.9116 436.408 78.2896 435.937 78.7843 435.601C79.2789 435.256 79.8669 435.083 80.5483 435.083C81.5843 435.083 82.3869 435.414 82.9563 436.077C83.5256 436.73 83.8103 437.645 83.8103 438.821ZM82.0323 438.303C82.0323 437.006 81.5516 436.357 80.5903 436.357C80.1516 436.357 79.8063 436.52 79.5543 436.847C79.3116 437.164 79.1669 437.678 79.1203 438.387H82.0323V438.303ZM89.3658 435.083C90.0285 435.083 90.5418 435.284 90.9058 435.685C91.2792 436.077 91.4658 436.628 91.4658 437.337V442.699H89.6738V437.617C89.6738 437.178 89.5945 436.87 89.4358 436.693C89.2865 436.516 89.0625 436.427 88.7638 436.427C88.4558 436.427 88.1758 436.525 87.9238 436.721C87.6812 436.908 87.4432 437.183 87.2098 437.547V442.699H85.4178V435.293H86.9718L87.1118 436.259C87.7185 435.475 88.4698 435.083 89.3658 435.083Z" fill="#353131"/>
<rect x="103" y="426.199" width="24" height="24" rx="12" fill="#353131" fill-opacity="0.24"/>
<rect x="121" y="437.699" width="1" height="12" rx="0.5" transform="rotate(90 121 437.699)" fill="#353131"/>
</svg>
